<svg id="Laag_1" data-name="Laag 1" xmlns="http://www.w3.org/2000/svg" viewBox="0 0 509.42 74.37"><defs><style>.cls-1{opacity:0.75;}.cls-2{fill:#c79385;}.cls-3{opacity:0.5;}</style></defs><g class="cls-1"><path class="cls-2" d="M75.27,71a17.16,17.16,0,0,1-.9,5.83A15.06,15.06,0,0,1,72,81.27a15.27,15.27,0,0,1-3.46,3.17,19.73,19.73,0,0,1-4.06,2.08,21.75,21.75,0,0,1-4.21,1.14,24.24,24.24,0,0,1-3.91.34,29.86,29.86,0,0,1-4.45-.32,21.3,21.3,0,0,1-3.64-.85,9,9,0,0,1-2.48-1.2,1.87,1.87,0,0,1-.88-1.41c0-1.07,0-2.59.1-4.59s.19-4.36.35-7.1l2.42.12c0,.37-.08.74-.11,1.1s0,.7,0,1a13,13,0,0,0,.73,4.64,7.86,7.86,0,0,0,2.08,3.1,8.18,8.18,0,0,0,3.26,1.73,15.57,15.57,0,0,0,4.26.53,15.23,15.23,0,0,0,4.51-.65,10.67,10.67,0,0,0,3.73-2A9.79,9.79,0,0,0,68.8,78.9a10.26,10.26,0,0,0,1-4.52,8.74,8.74,0,0,0-.15-1.72,7.24,7.24,0,0,0-.3-1.26,9.54,9.54,0,0,0-1.22-2.48,11.7,11.7,0,0,0-1.84-2.1A20.39,20.39,0,0,0,63.92,65c-.63-.44-1.3-.85-2-1.25-.21-.13-.42-.26-.65-.38l-2.82-1.57c-1-.54-2-1.1-3-1.68A30.69,30.69,0,0,1,52.6,58.3a20.2,20.2,0,0,1-2.55-2.12,13,13,0,0,1-2-2.52,12.74,12.74,0,0,1-1.82-6.77,16.34,16.34,0,0,1,.65-4.73,15.72,15.72,0,0,1,1.8-4,15.53,15.53,0,0,1,2.78-3.26A16.28,16.28,0,0,1,55,32.44a17.31,17.31,0,0,1,4.12-1.5,19.62,19.62,0,0,1,4.49-.51,20.26,20.26,0,0,1,2.25.13,21.8,21.8,0,0,1,2.38.38c.8.19,1.57.4,2.3.64a11.42,11.42,0,0,1,1.92.85,5.26,5.26,0,0,1,1.33,1.06,1.75,1.75,0,0,1,.51,1.22c0,.46,0,1,0,1.73s0,1.48-.06,2.37-.07,1.86-.11,2.9S74,43.86,73.91,45l-2.41-.12c0-.59.07-1.13.07-1.66a11.38,11.38,0,0,0-.71-4.17,8.31,8.31,0,0,0-2-3,8.17,8.17,0,0,0-3.09-1.82,12.41,12.41,0,0,0-4-.61,11.32,11.32,0,0,0-4.11.73,10.29,10.29,0,0,0-3.29,2,9.43,9.43,0,0,0-2.17,3.1,9.68,9.68,0,0,0-.79,3.95,10.31,10.31,0,0,0,.45,3.18,10.74,10.74,0,0,0,1.26,2.62A11.47,11.47,0,0,0,55,51.41a24.05,24.05,0,0,0,2.39,1.86c.86.58,1.77,1.13,2.73,1.66l2.9,1.58c1,.53,2,1.07,3,1.63s1.91,1.13,2.8,1.74l.21.15A20.49,20.49,0,0,1,71.43,62a12.91,12.91,0,0,1,2,2.47,11.24,11.24,0,0,1,.88,1.73c.16.37.3.76.43,1.15,0,0,0,.07,0,.1a11.94,11.94,0,0,1,.48,3C75.27,70.66,75.27,70.84,75.27,71Z" transform="translate(-34.46 -14)"/></g><g class="cls-1"><path class="cls-2" d="M75.55,49.16a2.33,2.33,0,0,0-1.85-.65l-1.41,0-2.67.06c-1,0-2.13,0-3.31.06s-2.3,0-3.36,0H61.38c-.21,0-.44,0-.69,0L60.85,51h2.9c1.23,0,2.22,0,3,.1a3.58,3.58,0,0,1,1.84.6,2.5,2.5,0,0,1,.9,1.48,10.26,10.26,0,0,1,.25,2.44,29.66,29.66,0,0,1,6,5.48c.07-1.4.12-2.7.16-3.92s.1-2.33.14-3.32.06-1.8.06-2.47A3.34,3.34,0,0,0,75.55,49.16Zm-.79,18.17a.38.38,0,0,1,0-.1,5.24,5.24,0,0,0-.4-1,11.24,11.24,0,0,0-.88-1.73,12.91,12.91,0,0,0-2-2.47,16.91,16.91,0,0,0-1.71-1.44c0,.32,0,.65,0,1,0,1.15-.13,2.21-.25,3.16a3.59,3.59,0,0,1-.57,1.5,4,4,0,0,1-1.39,1.22c-.15.08-.3.14-.46.21a11.92,11.92,0,0,1,1,1.32A8.82,8.82,0,0,1,69,70.63a23.27,23.27,0,0,0,2.58-.71,14.74,14.74,0,0,0,2-.77,8.2,8.2,0,0,0,1-.58,3.41,3.41,0,0,0,.42-.43h0a7.15,7.15,0,0,0-.19-.7S74.77,67.36,74.76,67.33ZM76.19,17.7a11.54,11.54,0,0,0-3.06-1.77,25,25,0,0,0-4.68-1.37,29.78,29.78,0,0,0-6-.56,27.9,27.9,0,0,0-8.59,1.26A25.53,25.53,0,0,0,41.45,23.9a32,32,0,0,0-3.89,6.42,34.51,34.51,0,0,0-2.33,7.21,36.73,36.73,0,0,0-.77,7.5,34.9,34.9,0,0,0,1.11,9.27,25.32,25.32,0,0,0,3.06,7,19.73,19.73,0,0,0,4.52,4.94,24.26,24.26,0,0,0,5.52,3.17,27,27,0,0,0,6,1.7,37.27,37.27,0,0,0,6.07.5,35.21,35.21,0,0,0,4.18-.24l.28,0a15.69,15.69,0,0,0-2.91-2.79h-.88a21.35,21.35,0,0,1-5.26-.64,17.51,17.51,0,0,1-8.87-5.33,19.58,19.58,0,0,1-3.2-4.87A28.23,28.23,0,0,1,42,51.21a41,41,0,0,1-.74-8.11,41.75,41.75,0,0,1,.5-6.41,33.63,33.63,0,0,1,1.55-6.06,26.23,26.23,0,0,1,2.62-5.34A18.68,18.68,0,0,1,49.68,21a16.77,16.77,0,0,1,4.88-2.83,17.2,17.2,0,0,1,6.08-1,19.51,19.51,0,0,1,3.77.35,15.82,15.82,0,0,1,3.46,1,14.3,14.3,0,0,1,3,1.74,11.09,11.09,0,0,1,2.34,2.4,7.49,7.49,0,0,1,1.26,2.83,16.37,16.37,0,0,1,.37,3.17c0,.22,0,.45,0,.65s0,.42,0,.65l2.08.05q.19-3.74.32-6.37c.09-1.75.13-3.18.13-4.28A2.44,2.44,0,0,0,76.19,17.7Z" transform="translate(-34.46 -14)"/></g><g class="cls-3"><path class="cls-2" d="M126.38,43.05a9.31,9.31,0,0,1,1.4,2.9,11.55,11.55,0,0,1,.4,3,11.18,11.18,0,0,1-.43,3,12,12,0,0,1-1.2,2.83,12.72,12.72,0,0,1-4.32,4.39,12.29,12.29,0,0,1-2.89,1.28,11.44,11.44,0,0,1-3.22.45,8.44,8.44,0,0,1-.87,0l-.87-.1a4.86,4.86,0,0,0-1.27.42,4.49,4.49,0,0,0-1,.65,3.07,3.07,0,0,0-.67.8,1.72,1.72,0,0,0-.24.86,1.92,1.92,0,0,0,.68,1.48,6.09,6.09,0,0,0,1.83,1.07,18.85,18.85,0,0,0,2.66.8c1,.23,2.06.47,3.16.7s2,.43,2.92.66,1.88.48,2.75.77a15.58,15.58,0,0,1,2.41,1,8.07,8.07,0,0,1,1.92,1.36,5.8,5.8,0,0,1,1.27,1.82,6,6,0,0,1,.45,2.4,9.09,9.09,0,0,1-.62,3.31,11.27,11.27,0,0,1-1.75,3,14.47,14.47,0,0,1-2.69,2.53,17.79,17.79,0,0,1-3.44,2,20.39,20.39,0,0,1-4,1.26,21,21,0,0,1-4.37.45,20.52,20.52,0,0,1-2.75-.19,19.75,19.75,0,0,1-2.85-.59,15.22,15.22,0,0,1-2.68-1,9.86,9.86,0,0,1-2.25-1.55,7.1,7.1,0,0,1-1.56-2.1,6.17,6.17,0,0,1-.57-2.71,7.14,7.14,0,0,1,.42-2.43,9.07,9.07,0,0,1,1.11-2.17,12.08,12.08,0,0,1,1.63-1.88,16.34,16.34,0,0,1,2-1.57A16.53,16.53,0,0,1,109,70.66a14.69,14.69,0,0,1,2.08-.8l0-.1a14.72,14.72,0,0,1-1.43-.72,6.33,6.33,0,0,1-1.27-1,4.94,4.94,0,0,1-.91-1.26,3.84,3.84,0,0,1,.12-3.4A5.73,5.73,0,0,1,108.76,62a8,8,0,0,1,1.56-1.08c.57-.3,1.12-.57,1.64-.79a11,11,0,0,1-2.72-1.52,9.59,9.59,0,0,1-2-2.12A9.37,9.37,0,0,1,106,53.91a9.73,9.73,0,0,1-.43-2.92,11.27,11.27,0,0,1,1-4.79,12,12,0,0,1,2.71-3.81,13,13,0,0,1,4-2.51A12.65,12.65,0,0,1,118,39a10.22,10.22,0,0,1,1.74.14,11.33,11.33,0,0,1,1.47.35,12.35,12.35,0,0,1,1.23.45l1.06.49q.75.38,1.47.66a4.53,4.53,0,0,0,1.67.29,4.64,4.64,0,0,0,1.53-.26,4,4,0,0,0,1.28-.74,3.62,3.62,0,0,0,.88-1.19,3.71,3.71,0,0,0,.33-1.59c0-.09,0-.18,0-.26s0-.17,0-.27l.26-.18a4.86,4.86,0,0,1,2,1.57,3.28,3.28,0,0,1,.67,1.89,2.86,2.86,0,0,1-.3,1.33,3,3,0,0,1-.84,1,3.75,3.75,0,0,1-1.3.63,5.75,5.75,0,0,1-1.66.22,9.08,9.08,0,0,1-3-.55Zm-13,27.64a10.87,10.87,0,0,0-2.66,1.09,9.46,9.46,0,0,0-2.23,1.73A7.93,7.93,0,0,0,107,75.83a7.21,7.21,0,0,0-.56,2.85,6.17,6.17,0,0,0,.84,3.27,7.38,7.38,0,0,0,2.17,2.28,9.5,9.5,0,0,0,3,1.35,12.55,12.55,0,0,0,3.24.43,13,13,0,0,0,4.15-.66,11.38,11.38,0,0,0,3.47-1.84,9,9,0,0,0,2.38-2.78,7.19,7.19,0,0,0,.88-3.5,3.65,3.65,0,0,0-.44-1.83,4.28,4.28,0,0,0-1.2-1.32,7.13,7.13,0,0,0-1.8-1c-.7-.26-1.47-.51-2.3-.73-1.12-.3-2.3-.58-3.55-.83S114.69,71,113.37,70.69Zm4.07-12a5,5,0,0,0,1.93-.37,5.33,5.33,0,0,0,1.53-1A6,6,0,0,0,122.05,56a10.66,10.66,0,0,0,.78-1.72,11.82,11.82,0,0,0,.6-3.65,12.66,12.66,0,0,0-.19-2.2,12.12,12.12,0,0,0-.56-2.17,9.63,9.63,0,0,0-1-2,8,8,0,0,0-1.35-1.59,6.31,6.31,0,0,0-1.76-1.08,5.94,5.94,0,0,0-2.2-.39,5.65,5.65,0,0,0-2,.35,5.47,5.47,0,0,0-1.59,1,6,6,0,0,0-1.17,1.42,8,8,0,0,0-.79,1.7,10.66,10.66,0,0,0-.46,1.83,11,11,0,0,0-.15,1.77,13.2,13.2,0,0,0,.2,2.23,11.85,11.85,0,0,0,.59,2.18,10.81,10.81,0,0,0,1,2,7.34,7.34,0,0,0,1.41,1.62,6,6,0,0,0,4,1.49Z" transform="translate(-34.46 -14)"/><path class="cls-2" d="M154.36,61.57l.3.17A2.16,2.16,0,0,1,155,62a1.85,1.85,0,0,1,.28.28.47.47,0,0,1,.11.28.27.27,0,0,1-.06.16A16,16,0,0,1,153,65.38a14.57,14.57,0,0,1-2.65,1.9,11.88,11.88,0,0,1-2.8,1.12,10.89,10.89,0,0,1-2.8.37,9.65,9.65,0,0,1-4.35-1,10.23,10.23,0,0,1-3.4-2.65,12.35,12.35,0,0,1-2.23-3.94,14.57,14.57,0,0,1-.8-4.86,20.29,20.29,0,0,1,.46-4.23,19.68,19.68,0,0,1,1.35-4,18.4,18.4,0,0,1,2.15-3.57,15,15,0,0,1,2.87-2.87,13.76,13.76,0,0,1,3.54-1.91,12.24,12.24,0,0,1,4.14-.69,9.46,9.46,0,0,1,2.79.4,7.54,7.54,0,0,1,2.33,1.13,5.82,5.82,0,0,1,1.59,1.83,5.42,5.42,0,0,1-.72,6A10.46,10.46,0,0,1,150.8,51a26.57,26.57,0,0,1-5.45,1.69,61.36,61.36,0,0,1-6.77,1v.34a15.7,15.7,0,0,0,.64,4.63A11.69,11.69,0,0,0,141,62.16a8.22,8.22,0,0,0,2.65,2.32,6.77,6.77,0,0,0,3.28.83,8.49,8.49,0,0,0,3.65-.88A13.34,13.34,0,0,0,154.36,61.57ZM150.64,45.7a4.51,4.51,0,0,0-.31-1.7,4.21,4.21,0,0,0-.85-1.38,3.9,3.9,0,0,0-2.91-1.25,5.88,5.88,0,0,0-2.34.45,6.53,6.53,0,0,0-1.88,1.24,8.71,8.71,0,0,0-1.46,1.81,14.14,14.14,0,0,0-1.08,2.21,18.8,18.8,0,0,0-1.11,4.78,34.24,34.24,0,0,0,5-.68,16.47,16.47,0,0,0,3.75-1.24,6.6,6.6,0,0,0,2.35-1.82A3.88,3.88,0,0,0,150.64,45.7Z" transform="translate(-34.46 -14)"/><path class="cls-2" d="M187.55,14.63c-.47,3.35-.93,6.78-1.36,10.28s-.82,7-1.15,10.48-.59,6.91-.79,10.29-.29,6.61-.29,9.7c0,1.49,0,2.77,0,3.84s.08,2,.15,2.71a10.52,10.52,0,0,0,.3,1.76,2.88,2.88,0,0,0,.47,1,1.36,1.36,0,0,0,.67.46,3.28,3.28,0,0,0,.89.11,7.71,7.71,0,0,0,2-.29,13,13,0,0,0,2.23-.8l.37,1a12.65,12.65,0,0,1-1.79,1.17,24.86,24.86,0,0,1-2.26,1.09,22.08,22.08,0,0,1-2.32.8,7.94,7.94,0,0,1-2,.3,3.43,3.43,0,0,1-1.07-.14,1.77,1.77,0,0,1-.78-.48,2.81,2.81,0,0,1-.55-.92,6.3,6.3,0,0,1-.37-1.46c-.12-.79-.21-1.72-.29-2.77s-.1-2.2-.1-3.44,0-2.66.14-4,.26-2.73.49-4.09l-.18,0a55.91,55.91,0,0,1-3.31,7.26A36.21,36.21,0,0,1,173.08,64a17,17,0,0,1-3.82,3.52,6.74,6.74,0,0,1-3.67,1.24,5.22,5.22,0,0,1-3.07-.9,7,7,0,0,1-2.1-2.37,11.65,11.65,0,0,1-1.22-3.38,19.55,19.55,0,0,1-.4-3.93,21.39,21.39,0,0,1,.54-4.79,21,21,0,0,1,1.53-4.48,21.73,21.73,0,0,1,2.4-3.93,16.84,16.84,0,0,1,3.15-3.11,14.78,14.78,0,0,1,3.76-2.05,12.43,12.43,0,0,1,4.26-.74,12.31,12.31,0,0,1,3.12.4,11.86,11.86,0,0,1,3.09,1.3q.1-3.36.25-6.83c.1-2.31.21-4.56.35-6.75s.27-4.26.43-6.21.33-3.69.52-5.22a1.7,1.7,0,0,1,.31-.82,1.82,1.82,0,0,1,.65-.55,3.12,3.12,0,0,1,.89-.31,4.87,4.87,0,0,1,1-.1A5.73,5.73,0,0,1,187.55,14.63Zm-7.09,27.86a12.35,12.35,0,0,0-5.3-1.26,9.8,9.8,0,0,0-3.53.61,10,10,0,0,0-2.9,1.69,11.62,11.62,0,0,0-2.25,2.53,15.68,15.68,0,0,0-1.61,3.13,19.11,19.11,0,0,0-1,3.47,19.76,19.76,0,0,0-.33,3.57c0,.43,0,.91.06,1.46a13.28,13.28,0,0,0,.23,1.7,14,14,0,0,0,.44,1.72,7.77,7.77,0,0,0,.69,1.51,3.59,3.59,0,0,0,1,1.08,2.36,2.36,0,0,0,1.38.4,5,5,0,0,0,2.9-1.06,15.36,15.36,0,0,0,2.9-2.83,28.74,28.74,0,0,0,2.67-4,43.54,43.54,0,0,0,2.23-4.68,36.87,36.87,0,0,0,1.6-4.75A23.54,23.54,0,0,0,180.46,42.49Z" transform="translate(-34.46 -14)"/><path class="cls-2" d="M213.16,61.57l.31.17a2.08,2.08,0,0,1,.34.24,1.48,1.48,0,0,1,.28.28.43.43,0,0,1,.12.28.27.27,0,0,1-.06.16,16.41,16.41,0,0,1-2.38,2.68,14.92,14.92,0,0,1-2.65,1.9,12,12,0,0,1-2.8,1.12,11,11,0,0,1-2.81.37,9.71,9.71,0,0,1-4.35-1,10.33,10.33,0,0,1-3.4-2.65,12.33,12.33,0,0,1-2.22-3.94,14.33,14.33,0,0,1-.81-4.86,19.65,19.65,0,0,1,.47-4.23,20.28,20.28,0,0,1,1.34-4,18.91,18.91,0,0,1,2.15-3.57,14.77,14.77,0,0,1,2.88-2.87,13.44,13.44,0,0,1,3.54-1.91,12.15,12.15,0,0,1,4.14-.69,9.56,9.56,0,0,1,2.79.4,7.48,7.48,0,0,1,2.32,1.13A5.69,5.69,0,0,1,214,42.41a5,5,0,0,1,.59,2.47,5.14,5.14,0,0,1-1.31,3.52A10.46,10.46,0,0,1,209.6,51a26.38,26.38,0,0,1-5.45,1.69,61,61,0,0,1-6.77,1v.34a15.7,15.7,0,0,0,.64,4.63,11.69,11.69,0,0,0,1.77,3.59,8.32,8.32,0,0,0,2.65,2.32,6.81,6.81,0,0,0,3.29.83,8.45,8.45,0,0,0,3.64-.88A13.34,13.34,0,0,0,213.16,61.57ZM209.44,45.7a4.71,4.71,0,0,0-.3-1.7,4.39,4.39,0,0,0-.85-1.38,4.15,4.15,0,0,0-1.3-.92,4,4,0,0,0-1.62-.33,5.8,5.8,0,0,0-2.33.45,6.4,6.4,0,0,0-1.88,1.24,8.75,8.75,0,0,0-1.47,1.81,13.26,13.26,0,0,0-1.07,2.21,16.45,16.45,0,0,0-.72,2.39,19.54,19.54,0,0,0-.4,2.39,34.24,34.24,0,0,0,5-.68,16.39,16.39,0,0,0,3.76-1.24,6.64,6.64,0,0,0,2.34-1.82A3.88,3.88,0,0,0,209.44,45.7Z" transform="translate(-34.46 -14)"/><path class="cls-2" d="M221.78,45a6.53,6.53,0,0,0-.12-1.36,2.31,2.31,0,0,0-.36-.88,1.36,1.36,0,0,0-.63-.46,2.38,2.38,0,0,0-.89-.14,9,9,0,0,0-1.7.19c-.66.14-1.41.31-2.25.54l-.3-1.43,2.7-.9c.86-.26,1.66-.5,2.38-.7s1.37-.35,1.92-.45a7.12,7.12,0,0,1,1.31-.16,2.37,2.37,0,0,1,1.79.68,3.46,3.46,0,0,1,.64,2.35c0,.13,0,.43,0,.92s-.06,1.09-.11,1.82-.1,1.59-.17,2.54-.14,2-.22,3.06-.19,2.2-.29,3.35-.22,2.3-.34,3.45l.12,0a55.82,55.82,0,0,1,3.22-8.61,30.13,30.13,0,0,1,3.5-5.69,12.72,12.72,0,0,1,3.54-3.16,7.09,7.09,0,0,1,3.36-1,5.63,5.63,0,0,1,2.14.42,4.84,4.84,0,0,1,1.83,1.32,6.65,6.65,0,0,1,1.27,2.35,11,11,0,0,1,.48,3.47c0,.39,0,.92-.07,1.59s-.1,1.4-.17,2.22-.14,1.69-.23,2.6-.16,1.82-.22,2.7-.13,1.73-.17,2.52-.07,1.5-.07,2.09a19,19,0,0,0,.13,2.51,4.63,4.63,0,0,0,.42,1.53,1.59,1.59,0,0,0,.79.77,3.12,3.12,0,0,0,1.21.21,8.15,8.15,0,0,0,2.14-.29,13,13,0,0,0,2.23-.8l.38,1a13.42,13.42,0,0,1-1.8,1.17c-.73.39-1.49.76-2.29,1.09a20.81,20.81,0,0,1-2.38.8,8.68,8.68,0,0,1-2.1.3,2.37,2.37,0,0,1-1.68-.57,3.52,3.52,0,0,1-.92-1.56,10.46,10.46,0,0,1-.39-2.32c-.06-.88-.09-1.83-.09-2.84,0-1.24,0-2.52.13-3.83s.18-2.56.28-3.75.21-2.26.29-3.23.13-1.74.13-2.32a5.46,5.46,0,0,0-.87-3.41,2.78,2.78,0,0,0-2.31-1.1,4,4,0,0,0-2.42,1A13.27,13.27,0,0,0,232,47.27a27.48,27.48,0,0,0-2.41,4,42.08,42.08,0,0,0-2.09,5A48,48,0,0,0,226,61.85a39.07,39.07,0,0,0-.77,5.85l-4.13.52-.32,0c.11-1.26.21-2.62.3-4.1s.18-3,.26-4.49.14-3,.2-4.53.12-2.9.16-4.19.08-2.47.1-3.49S221.78,45.56,221.78,45Z" transform="translate(-34.46 -14)"/><path class="cls-2" d="M263.84,55a31.48,31.48,0,0,0,4.33-1.8A19.19,19.19,0,0,0,271.54,51a9.33,9.33,0,0,0,2.18-2.41,4.84,4.84,0,0,0,.77-2.59,2.44,2.44,0,0,0-.2-1,2.51,2.51,0,0,0-.56-.79,2.57,2.57,0,0,0-.81-.5,2.73,2.73,0,0,0-1-.18,5.2,5.2,0,0,0-2.58.77,11.24,11.24,0,0,0-2.65,2.24,22.25,22.25,0,0,0-2.56,3.57,35.36,35.36,0,0,0-2.31,4.81,52.65,52.65,0,0,0-1.92,5.91,60.27,60.27,0,0,0-1.36,6.88l-4,.52-.31,0c.08-1.56.17-3.28.26-5.15s.21-3.88.32-6,.23-4.3.36-6.59.25-4.62.37-7,.26-4.76.39-7.18.26-4.79.38-7.14.25-4.66.37-6.91.23-4.41.34-6.47a1.41,1.41,0,0,1,.27-.82,1.77,1.77,0,0,1,.66-.55,3.22,3.22,0,0,1,.92-.31,5.39,5.39,0,0,1,1.07-.1,5.73,5.73,0,0,1,2.49.63q-.45,4-.81,7.44c-.23,2.25-.45,4.34-.64,6.27s-.37,3.74-.52,5.42-.3,3.29-.43,4.83-.24,3-.35,4.51-.23,3-.33,4.47-.22,3.09-.33,4.71-.23,3.36-.36,5.22l.12,0a44.59,44.59,0,0,1,1.68-4.65,41,41,0,0,1,2.13-4.36,33.48,33.48,0,0,1,2.51-3.81,20.54,20.54,0,0,1,2.81-3,13.29,13.29,0,0,1,3-2A7.46,7.46,0,0,1,274.1,39a5.12,5.12,0,0,1,1.86.33,4.38,4.38,0,0,1,1.47.93,4.06,4.06,0,0,1,1,1.45,5,5,0,0,1,.35,1.9,7.42,7.42,0,0,1-.72,3.18,11.46,11.46,0,0,1-2,3,18.84,18.84,0,0,1-3.14,2.7,29.66,29.66,0,0,1-4.06,2.36c.88,1.62,1.68,3,2.38,4.16s1.35,2.13,1.92,2.91a16.32,16.32,0,0,0,1.55,1.87A7.24,7.24,0,0,0,276,64.78a3.6,3.6,0,0,0,1.1.46,5.05,5.05,0,0,0,1,.11,7.82,7.82,0,0,0,2.14-.32,14.8,14.8,0,0,0,2.23-.83l.38,1A13.42,13.42,0,0,1,281,66.4a24.42,24.42,0,0,1-2.3,1.09,21.39,21.39,0,0,1-2.42.8,8.75,8.75,0,0,1-2.1.3,3.59,3.59,0,0,1-2.13-.78,11.76,11.76,0,0,1-2.27-2.42,43.81,43.81,0,0,1-2.68-4.16q-1.47-2.52-3.36-6Z" transform="translate(-34.46 -14)"/><path class="cls-2" d="M298.78,50.82a4.81,4.81,0,0,1,.31,1.64,1.64,1.64,0,0,1-.22.91,1.44,1.44,0,0,1-.68.53,4,4,0,0,1-1.2.26c-.5,0-1.09.06-1.79.06s-1.29,0-1.93,0l-2-.1-2-.11c-.65,0-1.31,0-2,0a24.17,24.17,0,0,0-2.57.13,15.88,15.88,0,0,0-2.53.48,3.73,3.73,0,0,1,.42-1.91,2.7,2.7,0,0,1,1.2-1.09,5.6,5.6,0,0,1,1.87-.5c.73-.07,1.54-.11,2.44-.11s1.9,0,3,.07,2.23.08,3.47.08c.75,0,1.49,0,2.21,0A16,16,0,0,0,298.78,50.82Z" transform="translate(-34.46 -14)"/><path class="cls-2" d="M306,60.56a5.85,5.85,0,0,0,2.43,4.37,6.68,6.68,0,0,0,2.15,1,8.23,8.23,0,0,0,2.34.34A7.3,7.3,0,0,0,315,66a6,6,0,0,0,1.78-.85A4.32,4.32,0,0,0,318,63.79a3.6,3.6,0,0,0,.47-1.82,3.4,3.4,0,0,0-.5-1.84,5.58,5.58,0,0,0-1.32-1.44,11.18,11.18,0,0,0-1.93-1.21l-2.28-1.13-2.11-1c-.7-.33-1.39-.7-2-1.09A16.85,16.85,0,0,1,306.48,53,8.73,8.73,0,0,1,305,51.44a6.91,6.91,0,0,1-1-1.88,6.73,6.73,0,0,1-.37-2.3,6.6,6.6,0,0,1,.47-2.51,7.17,7.17,0,0,1,1.3-2.07,9.26,9.26,0,0,1,1.9-1.61,12.39,12.39,0,0,1,2.3-1.16,13.83,13.83,0,0,1,2.52-.69,14.85,14.85,0,0,1,2.52-.23,12.59,12.59,0,0,1,3,.35,8.48,8.48,0,0,1,2.47,1A5.4,5.4,0,0,1,321.76,42a3.75,3.75,0,0,1,.62,2.13,3.61,3.61,0,0,1-.15,1,3,3,0,0,1-.54,1,3,3,0,0,1-1,.78,3.39,3.39,0,0,1-1.5.34,6.5,6.5,0,0,1-1.74-.26l-.06-.2a6.17,6.17,0,0,0,.4-1.16,4.54,4.54,0,0,0,.11-1,2.59,2.59,0,0,0-.46-1.53,3.53,3.53,0,0,0-1.12-1,4.87,4.87,0,0,0-1.49-.58,8.16,8.16,0,0,0-1.61-.17,7.79,7.79,0,0,0-2.51.37,6,6,0,0,0-1.87,1,4.54,4.54,0,0,0-1.17,1.41,3.59,3.59,0,0,0-.4,1.65,3.43,3.43,0,0,0,.57,1.94,6.68,6.68,0,0,0,1.52,1.59,14.64,14.64,0,0,0,2.19,1.35q1.23.63,2.58,1.26c1,.48,2,1,3,1.48a14.09,14.09,0,0,1,2.65,1.73,8.12,8.12,0,0,1,1.89,2.22,5.85,5.85,0,0,1,.72,3,7.3,7.3,0,0,1-.89,3.62,8.65,8.65,0,0,1-2.41,2.67,11.25,11.25,0,0,1-3.45,1.65,14.71,14.71,0,0,1-4,.56,14.9,14.9,0,0,1-2.17-.16,14.06,14.06,0,0,1-2.16-.47,12.86,12.86,0,0,1-2-.78,7.87,7.87,0,0,1-1.64-1.07,4.71,4.71,0,0,1-1.11-1.35,3.31,3.31,0,0,1-.4-1.63,2.5,2.5,0,0,1,.32-1.3,2.65,2.65,0,0,1,.86-.87,4.3,4.3,0,0,1,1.2-.51,6.09,6.09,0,0,1,1.35-.18Z" transform="translate(-34.46 -14)"/><path class="cls-2" d="M334.35,39.88c-.23,1.51-.42,3-.58,4.52s-.28,3-.38,4.38-.17,2.75-.22,4-.07,2.4-.07,3.41c0,1.38,0,2.55.06,3.53s.11,1.81.2,2.49a9.4,9.4,0,0,0,.34,1.61,2.55,2.55,0,0,0,.52.93,1.41,1.41,0,0,0,.71.42,3.71,3.71,0,0,0,.92.1,7.84,7.84,0,0,0,2-.29,12.93,12.93,0,0,0,2.22-.8l.38,1a13.92,13.92,0,0,1-1.79,1.17,25.06,25.06,0,0,1-2.27,1.09,21.32,21.32,0,0,1-2.32.8,7.94,7.94,0,0,1-2,.3,5.27,5.27,0,0,1-1-.09,1.62,1.62,0,0,1-.82-.44,3.21,3.21,0,0,1-.65-1.05,8.37,8.37,0,0,1-.47-1.88c-.13-.79-.22-1.78-.29-3s-.1-2.63-.1-4.31q0-1.48,0-3.36c0-1.24.05-2.58.09-4s.09-2.94.16-4.53.15-3.22.25-4.91a1.72,1.72,0,0,1,.3-.9,1.69,1.69,0,0,1,.63-.53,2.78,2.78,0,0,1,.8-.26,4.62,4.62,0,0,1,.79-.07A5.27,5.27,0,0,1,334.35,39.88ZM332.63,31a2.6,2.6,0,0,1-1.23-.29,2.88,2.88,0,0,1-.91-.75,3.33,3.33,0,0,1-.57-1.07,4,4,0,0,1-.2-1.24A3.89,3.89,0,0,1,330,26a3.32,3.32,0,0,1,.77-1.14A3,3,0,0,1,333,24a2.72,2.72,0,0,1,2.13.92,3.34,3.34,0,0,1,.59,1,3.47,3.47,0,0,1,.21,1.22,4.08,4.08,0,0,1-.24,1.37,4.46,4.46,0,0,1-.66,1.24,3.38,3.38,0,0,1-1,.89A2.74,2.74,0,0,1,332.63,31Z" transform="translate(-34.46 -14)"/><path class="cls-2" d="M362.17,61.57l.3.17a2.16,2.16,0,0,1,.35.24,1.85,1.85,0,0,1,.28.28.47.47,0,0,1,.11.28.22.22,0,0,1-.06.16,16,16,0,0,1-2.38,2.68,14.57,14.57,0,0,1-2.65,1.9,11.88,11.88,0,0,1-2.8,1.12,10.89,10.89,0,0,1-2.8.37,9.71,9.71,0,0,1-4.35-1,10.33,10.33,0,0,1-3.4-2.65,12.54,12.54,0,0,1-2.23-3.94,14.57,14.57,0,0,1-.8-4.86,19.65,19.65,0,0,1,.47-4.23,19.07,19.07,0,0,1,1.34-4,18.4,18.4,0,0,1,2.15-3.57,15,15,0,0,1,2.87-2.87,13.76,13.76,0,0,1,3.54-1.91,12.24,12.24,0,0,1,4.14-.69,9.46,9.46,0,0,1,2.79.4,7.43,7.43,0,0,1,2.33,1.13A5.82,5.82,0,0,1,363,42.41a5.42,5.42,0,0,1-.72,6A10.46,10.46,0,0,1,358.61,51a26.57,26.57,0,0,1-5.45,1.69,61.36,61.36,0,0,1-6.77,1v.34a15.7,15.7,0,0,0,.64,4.63,11.69,11.69,0,0,0,1.77,3.59,8.32,8.32,0,0,0,2.65,2.32,6.8,6.8,0,0,0,3.28.83,8.49,8.49,0,0,0,3.65-.88A13.34,13.34,0,0,0,362.17,61.57ZM358.45,45.7a4.51,4.51,0,0,0-.31-1.7,4.21,4.21,0,0,0-.85-1.38,3.9,3.9,0,0,0-2.91-1.25,5.88,5.88,0,0,0-2.34.45,6.53,6.53,0,0,0-1.88,1.24,8.71,8.71,0,0,0-1.46,1.81,14.14,14.14,0,0,0-1.08,2.21,19.38,19.38,0,0,0-.72,2.39,21.57,21.57,0,0,0-.39,2.39,34.24,34.24,0,0,0,5-.68,16.73,16.73,0,0,0,3.76-1.24,6.64,6.64,0,0,0,2.34-1.82A3.88,3.88,0,0,0,358.45,45.7Z" transform="translate(-34.46 -14)"/><path class="cls-2" d="M370.06,68.22l-.32,0c.1-1.26.2-2.62.3-4.1s.17-3,.25-4.49.15-3,.21-4.53.11-2.9.16-4.19.08-2.47.1-3.49,0-1.84,0-2.44a11.44,11.44,0,0,0-.06-1.26,2.22,2.22,0,0,0-.27-.89,1.22,1.22,0,0,0-.6-.52,2.66,2.66,0,0,0-1.07-.17,5.53,5.53,0,0,0-.69,0c-.24,0-.5.06-.79.11l-1,.21-1.26.31-.29-1.42a51.55,51.55,0,0,1,5.32-1.68,14.85,14.85,0,0,1,2.74-.48,2.16,2.16,0,0,1,1.87.76,3.76,3.76,0,0,1,.57,2.27c0,.09,0,.36,0,.81s-.07,1-.11,1.75-.1,1.55-.17,2.5-.14,2-.23,3.05-.18,2.22-.28,3.4-.22,2.36-.34,3.53l.2,0a72,72,0,0,1,2.14-7.22,32.73,32.73,0,0,1,2.69-5.83,14.32,14.32,0,0,1,3.28-3.88A6.17,6.17,0,0,1,386.35,39a4,4,0,0,1,1.4.24,3.51,3.51,0,0,1,1.13.66,3.1,3.1,0,0,1,.75,1,2.89,2.89,0,0,1,.28,1.28,4,4,0,0,1-.39,1.71,4,4,0,0,1-1.21,1.45h-.16a6.66,6.66,0,0,0-1.57-1A4.19,4.19,0,0,0,385,44a4.65,4.65,0,0,0-1.72.33,5.23,5.23,0,0,0-1.52,1A11.06,11.06,0,0,0,379.67,48a26.64,26.64,0,0,0-1.77,3.75c-.54,1.37-1,2.81-1.45,4.32s-.8,3-1.11,4.41-.56,2.77-.75,4-.32,2.32-.4,3.17Z" transform="translate(-34.46 -14)"/><path class="cls-2" d="M406.5,47.38a6.42,6.42,0,0,0-.52-2.71,5.38,5.38,0,0,0-1.34-1.88,5.45,5.45,0,0,0-1.88-1.09,6.43,6.43,0,0,0-2.1-.35,8.16,8.16,0,0,0-2.37.29,4.46,4.46,0,0,0-1.57.81,3.05,3.05,0,0,0-.87,1.22,4.17,4.17,0,0,0-.27,1.51,5.64,5.64,0,0,0,.35,1.91A7.32,7.32,0,0,0,397,49l-.08.22a5.23,5.23,0,0,1-2.28.55,3.69,3.69,0,0,1-1.25-.21A2.76,2.76,0,0,1,391.66,48a3.13,3.13,0,0,1-.25-1.29,4.57,4.57,0,0,1,.56-2.19,7.39,7.39,0,0,1,1.5-1.88,11.16,11.16,0,0,1,2.15-1.52,17.35,17.35,0,0,1,2.53-1.14,18.2,18.2,0,0,1,2.62-.71,13.76,13.76,0,0,1,2.45-.25,10,10,0,0,1,3.54.56,5.79,5.79,0,0,1,2.4,1.61,6.53,6.53,0,0,1,1.34,2.56,12.59,12.59,0,0,1,.43,3.4c0,.87,0,1.83-.11,2.87s-.16,2.13-.25,3.27-.18,2.32-.25,3.53-.11,2.42-.11,3.62a7.24,7.24,0,0,0,1.06,4.28,3.31,3.31,0,0,0,2.78,1.43,6.69,6.69,0,0,0,3.4-1.13l.57.85a9.37,9.37,0,0,1-2.88,2,8,8,0,0,1-3.28.69,6.37,6.37,0,0,1-2.38-.43,5.09,5.09,0,0,1-1.88-1.3,6,6,0,0,1-1.22-2.16,9.58,9.58,0,0,1-.44-3c0-.34,0-.68,0-1s.07-.7.13-1.08H406a28.16,28.16,0,0,1-2,3.35,18.2,18.2,0,0,1-2.45,2.94,12.12,12.12,0,0,1-2.84,2.1,6.76,6.76,0,0,1-3.18.8,6.46,6.46,0,0,1-2.49-.47,5.69,5.69,0,0,1-3.17-3.28,6.63,6.63,0,0,1-.45-2.48,7.57,7.57,0,0,1,.65-3.16,8.27,8.27,0,0,1,1.78-2.55,11.06,11.06,0,0,1,2.71-2A19.11,19.11,0,0,1,398,53.44a23.89,23.89,0,0,1,3.94-.81,32.68,32.68,0,0,1,4.23-.27c.09-.83.17-1.64.23-2.41S406.5,48.31,406.5,47.38ZM394.36,61a6.37,6.37,0,0,0,.16,1.47,3.77,3.77,0,0,0,.54,1.24,2.59,2.59,0,0,0,.93.84,2.81,2.81,0,0,0,1.35.31,4.5,4.5,0,0,0,1.84-.42,8.51,8.51,0,0,0,1.87-1.15,11.62,11.62,0,0,0,1.76-1.75,14.67,14.67,0,0,0,1.51-2.22,14.83,14.83,0,0,0,1.12-2.54A12.16,12.16,0,0,0,406,54c-1,0-1.94.09-2.9.19a20.32,20.32,0,0,0-2.74.46,13.13,13.13,0,0,0-2.41.83,7.2,7.2,0,0,0-1.9,1.28,5.42,5.42,0,0,0-1.26,1.8A6,6,0,0,0,394.36,61Z" transform="translate(-34.46 -14)"/><path class="cls-2" d="M435.46,47.38a6.59,6.59,0,0,0-.51-2.71,5.38,5.38,0,0,0-1.34-1.88,5.55,5.55,0,0,0-1.88-1.09,6.43,6.43,0,0,0-2.1-.35,8.07,8.07,0,0,0-2.37.29,4.38,4.38,0,0,0-1.57.81,2.87,2.87,0,0,0-.87,1.22,4.17,4.17,0,0,0-.27,1.51,5.62,5.62,0,0,0,.34,1.91,8,8,0,0,0,1,1.87l-.07.22a5.27,5.27,0,0,1-2.28.55,3.6,3.6,0,0,1-1.25-.21A2.81,2.81,0,0,1,420.62,48a3.3,3.3,0,0,1-.24-1.29,4.57,4.57,0,0,1,.56-2.19,7.35,7.35,0,0,1,1.49-1.88,10.94,10.94,0,0,1,2.16-1.52,17.35,17.35,0,0,1,2.53-1.14,17.86,17.86,0,0,1,2.62-.71,13.74,13.74,0,0,1,2.44-.25,10.06,10.06,0,0,1,3.55.56,5.75,5.75,0,0,1,2.39,1.61,6.54,6.54,0,0,1,1.35,2.56,12.61,12.61,0,0,1,.42,3.4c0,.87,0,1.83-.11,2.87s-.15,2.13-.24,3.27-.18,2.32-.25,3.53-.11,2.42-.11,3.62a7.17,7.17,0,0,0,1.06,4.28A3.3,3.3,0,0,0,443,66.1a6.69,6.69,0,0,0,3.4-1.13l.57.85a9.37,9.37,0,0,1-2.88,2,8.09,8.09,0,0,1-3.29.69,6.36,6.36,0,0,1-2.37-.43,5.09,5.09,0,0,1-1.88-1.3,5.81,5.81,0,0,1-1.22-2.16,9.58,9.58,0,0,1-.44-3c0-.34,0-.68,0-1a8.79,8.79,0,0,1,.13-1.08H435a29.58,29.58,0,0,1-2,3.35,18.2,18.2,0,0,1-2.45,2.94,12.17,12.17,0,0,1-2.85,2.1,6.69,6.69,0,0,1-3.17.8,6.46,6.46,0,0,1-2.49-.47,5.69,5.69,0,0,1-1.93-1.31,5.79,5.79,0,0,1-1.24-2,6.63,6.63,0,0,1-.45-2.48A7.56,7.56,0,0,1,419,59.3a8.44,8.44,0,0,1,1.78-2.55,11.32,11.32,0,0,1,2.72-2A18.82,18.82,0,0,1,427,53.44a23.89,23.89,0,0,1,3.94-.81,32.68,32.68,0,0,1,4.23-.27c.09-.83.16-1.64.23-2.41S435.46,48.31,435.46,47.38ZM423.32,61a6.37,6.37,0,0,0,.17,1.47,3.75,3.75,0,0,0,.53,1.24,2.77,2.77,0,0,0,.93.84,2.87,2.87,0,0,0,1.36.31,4.54,4.54,0,0,0,1.84-.42A8.75,8.75,0,0,0,430,63.25a11.62,11.62,0,0,0,1.76-1.75,14.67,14.67,0,0,0,1.51-2.22,14.83,14.83,0,0,0,1.12-2.54A12.73,12.73,0,0,0,435,54c-1,0-1.95.09-2.91.19a20.87,20.87,0,0,0-2.74.46,13.29,13.29,0,0,0-2.4.83A7.26,7.26,0,0,0,425,56.76a5.54,5.54,0,0,0-1.25,1.8A5.81,5.81,0,0,0,423.32,61Z" transform="translate(-34.46 -14)"/><path class="cls-2" d="M476.59,14.63c-.47,3.35-.93,6.78-1.36,10.28s-.82,7-1.15,10.48-.59,6.91-.79,10.29-.3,6.61-.3,9.7c0,1.49,0,2.77.05,3.84s.09,2,.16,2.71a9.58,9.58,0,0,0,.3,1.76,2.88,2.88,0,0,0,.47,1,1.33,1.33,0,0,0,.66.46,3.33,3.33,0,0,0,.89.11,7.73,7.73,0,0,0,2.05-.29,12.93,12.93,0,0,0,2.22-.8l.38,1a12.65,12.65,0,0,1-1.79,1.17,24.86,24.86,0,0,1-2.26,1.09,21.46,21.46,0,0,1-2.33.8,7.87,7.87,0,0,1-2,.3,3.43,3.43,0,0,1-1.07-.14A1.66,1.66,0,0,1,470,68a3,3,0,0,1-.56-.92,6.9,6.9,0,0,1-.36-1.46c-.12-.79-.22-1.72-.29-2.77s-.11-2.2-.11-3.44,0-2.66.15-4,.26-2.73.48-4.09l-.17,0a57.28,57.28,0,0,1-3.31,7.26A37,37,0,0,1,462.12,64a17.27,17.27,0,0,1-3.82,3.52,6.77,6.77,0,0,1-3.68,1.24,5.21,5.21,0,0,1-3.06-.9,7,7,0,0,1-2.11-2.37,11.94,11.94,0,0,1-1.21-3.38,18.85,18.85,0,0,1-.4-3.93,21.39,21.39,0,0,1,.54-4.79,21,21,0,0,1,1.53-4.48,20.66,20.66,0,0,1,2.4-3.93,16.79,16.79,0,0,1,3.14-3.11,14.84,14.84,0,0,1,3.77-2.05,12.52,12.52,0,0,1,7.38-.34,12,12,0,0,1,3.09,1.3q.1-3.36.25-6.83t.34-6.75c.14-2.19.28-4.26.44-6.21s.33-3.69.51-5.22a1.71,1.71,0,0,1,.32-.82,1.82,1.82,0,0,1,.65-.55,3.12,3.12,0,0,1,.89-.31,4.87,4.87,0,0,1,1-.1A5.73,5.73,0,0,1,476.59,14.63Zm-7.1,27.86a12.32,12.32,0,0,0-5.3-1.26,9.73,9.73,0,0,0-6.42,2.3,11.93,11.93,0,0,0-2.26,2.53,15.64,15.64,0,0,0-1.6,3.13,20,20,0,0,0-1,3.47,19.74,19.74,0,0,0-.32,3.57c0,.43,0,.91.06,1.46a15.24,15.24,0,0,0,.22,1.7,12.41,12.41,0,0,0,.45,1.72,6.74,6.74,0,0,0,.69,1.51,3.59,3.59,0,0,0,1,1.08,2.35,2.35,0,0,0,1.37.4A5,5,0,0,0,459.33,63a15.66,15.66,0,0,0,2.9-2.83,28.74,28.74,0,0,0,2.67-4,45.53,45.53,0,0,0,2.23-4.68,38.47,38.47,0,0,0,1.6-4.75A22.62,22.62,0,0,0,469.49,42.49Z" transform="translate(-34.46 -14)"/><path class="cls-2" d="M486.68,68.51a2.72,2.72,0,0,1-1.26-.28,3,3,0,0,1-.95-.76,3.48,3.48,0,0,1-.59-1.09,4.07,4.07,0,0,1,.1-2.85,3.46,3.46,0,0,1,.79-1.16,3.36,3.36,0,0,1,1.07-.7,3.14,3.14,0,0,1,1.17-.24,3,3,0,0,1,1.24.26,3.15,3.15,0,0,1,1,.68,3.21,3.21,0,0,1,.61,1,3.63,3.63,0,0,1,.22,1.24,4.25,4.25,0,0,1-.24,1.4,4.32,4.32,0,0,1-.68,1.25,3.7,3.7,0,0,1-1.07.9A2.78,2.78,0,0,1,486.68,68.51Z" transform="translate(-34.46 -14)"/><path class="cls-2" d="M499.15,45A6.53,6.53,0,0,0,499,43.6a2.31,2.31,0,0,0-.36-.88,1.39,1.39,0,0,0-.62-.46,2.47,2.47,0,0,0-.9-.14,9,9,0,0,0-1.7.19c-.66.14-1.41.31-2.25.54l-.3-1.43,2.7-.9c.87-.26,1.66-.5,2.38-.7s1.37-.35,1.92-.45a7.12,7.12,0,0,1,1.31-.16,2.37,2.37,0,0,1,1.79.68,3.41,3.41,0,0,1,.64,2.35c0,.13,0,.43,0,.92s-.06,1.09-.11,1.82-.1,1.59-.17,2.54-.14,2-.22,3.06-.19,2.2-.29,3.35-.22,2.3-.34,3.45l.12,0a55.82,55.82,0,0,1,3.22-8.61,30.13,30.13,0,0,1,3.5-5.69,12.72,12.72,0,0,1,3.54-3.16,7.1,7.1,0,0,1,3.37-1,5.58,5.58,0,0,1,2.13.42,4.76,4.76,0,0,1,1.83,1.32,6.83,6.83,0,0,1,1.28,2.35,11.28,11.28,0,0,1,.47,3.47c0,.39,0,.92-.07,1.59s-.1,1.4-.17,2.22-.14,1.69-.23,2.6-.16,1.82-.22,2.7-.12,1.73-.17,2.52-.07,1.5-.07,2.09a19,19,0,0,0,.13,2.51,4.63,4.63,0,0,0,.42,1.53,1.63,1.63,0,0,0,.79.77,3.12,3.12,0,0,0,1.21.21,8.15,8.15,0,0,0,2.14-.29,13,13,0,0,0,2.23-.8l.38,1a13.42,13.42,0,0,1-1.8,1.17c-.73.39-1.49.76-2.29,1.09a20.17,20.17,0,0,1-2.38.8,8.68,8.68,0,0,1-2.1.3,2.37,2.37,0,0,1-1.68-.57,3.42,3.42,0,0,1-.91-1.56,9.88,9.88,0,0,1-.4-2.32c-.06-.88-.09-1.83-.09-2.84,0-1.24,0-2.52.13-3.83s.18-2.56.28-3.75.21-2.26.29-3.23.13-1.74.13-2.32a5.46,5.46,0,0,0-.87-3.41,2.78,2.78,0,0,0-2.31-1.1,4,4,0,0,0-2.41,1,13,13,0,0,0-2.53,2.66,27.48,27.48,0,0,0-2.41,4,42.07,42.07,0,0,0-2.08,5,46.12,46.12,0,0,0-1.55,5.61,39.07,39.07,0,0,0-.77,5.85l-4.13.52-.32,0c.11-1.26.21-2.62.3-4.1s.18-3,.26-4.49.15-3,.21-4.53.11-2.9.15-4.19.08-2.47.1-3.49S499.15,45.56,499.15,45Z" transform="translate(-34.46 -14)"/><path class="cls-2" d="M539.84,14.63q-.39,3.36-.78,6.89c-.25,2.36-.5,4.74-.73,7.14s-.44,4.82-.64,7.25-.37,4.81-.52,7.17-.25,4.66-.33,6.93-.12,4.44-.12,6.52c0,1.31,0,2.43,0,3.36s.09,1.73.16,2.38a8.94,8.94,0,0,0,.29,1.56,2.57,2.57,0,0,0,.47.91,1.31,1.31,0,0,0,.65.42,3.33,3.33,0,0,0,.89.11,7.78,7.78,0,0,0,2-.29,12.93,12.93,0,0,0,2.22-.8l.38,1a13.25,13.25,0,0,1-1.79,1.17,25.06,25.06,0,0,1-2.27,1.09,21.32,21.32,0,0,1-2.32.8,7.87,7.87,0,0,1-2,.3,2.5,2.5,0,0,1-1.69-.54,3.52,3.52,0,0,1-1-1.77,16.17,16.17,0,0,1-.41-3.19c-.06-1.32-.09-2.91-.09-4.8,0-.68,0-1.66.06-2.93s.09-2.76.17-4.44.15-3.54.24-5.54.2-4.08.3-6.22.22-4.3.34-6.48.23-4.29.35-6.33.23-4,.34-5.77.2-3.4.3-4.78a1.41,1.41,0,0,1,.27-.82,1.73,1.73,0,0,1,.67-.55,3.19,3.19,0,0,1,.9-.31,5,5,0,0,1,1-.1A5.73,5.73,0,0,1,539.84,14.63Z" transform="translate(-34.46 -14)"/></g><path class="cls-2" d="M122.68,43.33a9.31,9.31,0,0,1,1.4,2.9,11.55,11.55,0,0,1,.4,3,11.18,11.18,0,0,1-.43,3,12,12,0,0,1-1.21,2.83A12.32,12.32,0,0,1,121,57.53a12.76,12.76,0,0,1-2.45,1.94,12,12,0,0,1-2.88,1.28,11.51,11.51,0,0,1-3.23.45,8.25,8.25,0,0,1-.86,0l-.88-.1a4.91,4.91,0,0,0-1.26.42,4.49,4.49,0,0,0-1,.65,3.07,3.07,0,0,0-.67.8,1.72,1.72,0,0,0-.24.86,1.93,1.93,0,0,0,.68,1.48A6.09,6.09,0,0,0,110,66.34a18.85,18.85,0,0,0,2.66.8c1,.23,2.06.47,3.16.7s2,.43,2.92.66,1.88.48,2.75.77a16,16,0,0,1,2.41,1,8.07,8.07,0,0,1,1.92,1.36,5.8,5.8,0,0,1,1.27,1.82,6,6,0,0,1,.45,2.4,9.09,9.09,0,0,1-.62,3.31,11.27,11.27,0,0,1-1.75,3,14.47,14.47,0,0,1-2.69,2.53,18.33,18.33,0,0,1-3.44,2,20.39,20.39,0,0,1-4,1.26,21,21,0,0,1-4.38.45,22.16,22.16,0,0,1-2.74-.19,19.47,19.47,0,0,1-2.85-.59,15.22,15.22,0,0,1-2.68-1A9.86,9.86,0,0,1,100.13,85a7.1,7.1,0,0,1-1.56-2.1A6.17,6.17,0,0,1,98,80.18a7.14,7.14,0,0,1,.42-2.43,8.72,8.72,0,0,1,1.11-2.17,11.57,11.57,0,0,1,1.63-1.88,16.34,16.34,0,0,1,2-1.57,15.41,15.41,0,0,1,2.12-1.19,14.24,14.24,0,0,1,2.08-.8l0-.1a13.66,13.66,0,0,1-1.43-.72,6.33,6.33,0,0,1-1.27-1,4.71,4.71,0,0,1-.91-1.26,3.84,3.84,0,0,1,.12-3.4,5.52,5.52,0,0,1,1.18-1.42,7.74,7.74,0,0,1,1.56-1.08c.57-.3,1.11-.57,1.64-.79a11,11,0,0,1-2.72-1.52,9.59,9.59,0,0,1-2-2.12,9.37,9.37,0,0,1-1.26-2.58,9.73,9.73,0,0,1-.43-2.92,11.42,11.42,0,0,1,1-4.79,12.15,12.15,0,0,1,2.72-3.81,12.83,12.83,0,0,1,4-2.51,12.65,12.65,0,0,1,4.74-.91,10.22,10.22,0,0,1,1.74.14,11.33,11.33,0,0,1,1.47.35c.44.14.86.29,1.23.45l1.06.49q.75.38,1.47.66a4.53,4.53,0,0,0,1.67.29,4.64,4.64,0,0,0,1.53-.26,4,4,0,0,0,1.28-.74,3.62,3.62,0,0,0,.88-1.19,3.71,3.71,0,0,0,.33-1.59c0-.09,0-.18,0-.26s0-.17,0-.28l.25-.17a4.9,4.9,0,0,1,2,1.57,3.26,3.26,0,0,1,.66,1.89,2.86,2.86,0,0,1-.29,1.33,3,3,0,0,1-.84,1,3.84,3.84,0,0,1-1.3.63,5.75,5.75,0,0,1-1.66.22,9.08,9.08,0,0,1-3-.55ZM109.67,71A10.87,10.87,0,0,0,107,72.06a9.46,9.46,0,0,0-2.23,1.73,7.93,7.93,0,0,0-1.53,2.32,7,7,0,0,0-.56,2.85,6.17,6.17,0,0,0,.84,3.27,7.38,7.38,0,0,0,2.17,2.28,9.5,9.5,0,0,0,3,1.35,12.55,12.55,0,0,0,3.24.43,13,13,0,0,0,4.15-.66,11.38,11.38,0,0,0,3.47-1.84A8.86,8.86,0,0,0,121.91,81a7.11,7.11,0,0,0,.88-3.5,3.64,3.64,0,0,0-.43-1.83,4.28,4.28,0,0,0-1.2-1.32,7,7,0,0,0-1.81-1,23.86,23.86,0,0,0-2.29-.73c-1.12-.3-2.3-.58-3.55-.83S111,71.3,109.67,71Zm4.07-12a5,5,0,0,0,1.93-.37,5.33,5.33,0,0,0,1.53-1,6.18,6.18,0,0,0,1.15-1.43,10.66,10.66,0,0,0,.78-1.72,11.76,11.76,0,0,0,.45-1.84,11.52,11.52,0,0,0,.15-1.81,12.85,12.85,0,0,0-.19-2.21,12.24,12.24,0,0,0-.56-2.16,9.63,9.63,0,0,0-1-2,8,8,0,0,0-1.35-1.59,6.46,6.46,0,0,0-1.76-1.08,6,6,0,0,0-2.2-.39,5.65,5.65,0,0,0-2,.35,5.34,5.34,0,0,0-1.59,1,6,6,0,0,0-1.17,1.42,8.53,8.53,0,0,0-.8,1.7,11.64,11.64,0,0,0-.45,1.83,11,11,0,0,0-.15,1.77,13.2,13.2,0,0,0,.2,2.23,11.85,11.85,0,0,0,.59,2.18,10.81,10.81,0,0,0,1,2,7.34,7.34,0,0,0,1.41,1.62,6,6,0,0,0,4,1.49Z" transform="translate(-34.46 -14)"/><path class="cls-2" d="M150.65,61.85,151,62a2.16,2.16,0,0,1,.35.24,1.79,1.79,0,0,1,.27.28.43.43,0,0,1,.12.28.27.27,0,0,1-.06.16,16,16,0,0,1-2.38,2.68,14.57,14.57,0,0,1-2.65,1.9,12,12,0,0,1-2.8,1.12,10.94,10.94,0,0,1-2.8.37,9.65,9.65,0,0,1-4.35-1,10.37,10.37,0,0,1-3.41-2.65A12.52,12.52,0,0,1,131,61.49a14.57,14.57,0,0,1-.8-4.86A19.82,19.82,0,0,1,132,48.37a18.36,18.36,0,0,1,2.14-3.57,15.34,15.34,0,0,1,2.88-2.87A13.44,13.44,0,0,1,140.6,40a12.24,12.24,0,0,1,4.14-.69,9.46,9.46,0,0,1,2.79.4,7.37,7.37,0,0,1,2.32,1.13,5.72,5.72,0,0,1,1.6,1.83,5.4,5.4,0,0,1-.73,6,10.18,10.18,0,0,1-3.62,2.55,26,26,0,0,1-5.45,1.7,61.36,61.36,0,0,1-6.77,1v.34a15.7,15.7,0,0,0,.64,4.63,11.69,11.69,0,0,0,1.77,3.59,8.22,8.22,0,0,0,2.65,2.32,6.77,6.77,0,0,0,3.28.83,8.49,8.49,0,0,0,3.65-.88A13.31,13.31,0,0,0,150.65,61.85ZM146.94,46a4.81,4.81,0,0,0-.31-1.71,4.27,4.27,0,0,0-.85-1.37,4,4,0,0,0-1.29-.92,4.06,4.06,0,0,0-1.63-.33,5.87,5.87,0,0,0-2.33.45,6.53,6.53,0,0,0-1.88,1.24,8.71,8.71,0,0,0-1.46,1.81,14.14,14.14,0,0,0-1.08,2.21,17.79,17.79,0,0,0-.72,2.39,21.67,21.67,0,0,0-.4,2.39,34.39,34.39,0,0,0,5-.68,16.47,16.47,0,0,0,3.75-1.24,6.69,6.69,0,0,0,2.35-1.82A3.9,3.9,0,0,0,146.94,46Z" transform="translate(-34.46 -14)"/><path class="cls-2" d="M183.85,14.91c-.47,3.35-.93,6.78-1.36,10.28s-.82,7-1.15,10.48-.59,6.91-.79,10.29-.3,6.61-.3,9.7c0,1.49,0,2.77.05,3.84s.09,2,.16,2.71a9.58,9.58,0,0,0,.3,1.76,2.88,2.88,0,0,0,.47,1,1.31,1.31,0,0,0,.67.46,3.28,3.28,0,0,0,.89.11,7.71,7.71,0,0,0,2-.29,13.34,13.34,0,0,0,2.23-.8l.37,1a12.65,12.65,0,0,1-1.79,1.17,24.86,24.86,0,0,1-2.26,1.09,22.08,22.08,0,0,1-2.32.8,7.94,7.94,0,0,1-2,.3,3.43,3.43,0,0,1-1.07-.14,1.77,1.77,0,0,1-.78-.48,3,3,0,0,1-.56-.92,6.9,6.9,0,0,1-.36-1.46c-.12-.79-.22-1.72-.29-2.77s-.11-2.2-.11-3.44.05-2.66.15-4,.26-2.72.49-4.08l-.18,0a57.28,57.28,0,0,1-3.31,7.26,36.32,36.32,0,0,1-3.69,5.53,17.09,17.09,0,0,1-3.82,3.53,6.77,6.77,0,0,1-3.67,1.24,5.22,5.22,0,0,1-3.07-.9,7,7,0,0,1-2.11-2.37,11.94,11.94,0,0,1-1.21-3.38,19.62,19.62,0,0,1-.4-3.93,21.39,21.39,0,0,1,.54-4.79,21,21,0,0,1,1.53-4.48,21.73,21.73,0,0,1,2.4-3.93,16.84,16.84,0,0,1,3.15-3.11,14.78,14.78,0,0,1,3.76-2,12.52,12.52,0,0,1,7.38-.34,12,12,0,0,1,3.09,1.3q.11-3.36.25-6.83c.1-2.31.21-4.56.35-6.75s.27-4.26.43-6.21.33-3.69.51-5.22a1.71,1.71,0,0,1,.32-.82,1.82,1.82,0,0,1,.65-.55,3.12,3.12,0,0,1,.89-.31,4.87,4.87,0,0,1,1-.1A5.73,5.73,0,0,1,183.85,14.91Zm-7.1,27.86a12.31,12.31,0,0,0-5.29-1.26,9.8,9.8,0,0,0-3.53.61,10,10,0,0,0-2.9,1.69,11.62,11.62,0,0,0-2.25,2.53,15.87,15.87,0,0,0-1.61,3.12,19.44,19.44,0,0,0-.95,3.48,19.68,19.68,0,0,0-.33,3.57c0,.43,0,.91.06,1.46a13.52,13.52,0,0,0,.23,1.7,14.45,14.45,0,0,0,.44,1.72,7.22,7.22,0,0,0,.69,1.51,3.59,3.59,0,0,0,1,1.08,2.35,2.35,0,0,0,1.37.4,5,5,0,0,0,2.91-1.06,15.36,15.36,0,0,0,2.9-2.83,28.29,28.29,0,0,0,2.67-4,44.4,44.4,0,0,0,2.23-4.67A39,39,0,0,0,176,47,22.62,22.62,0,0,0,176.75,42.77Z" transform="translate(-34.46 -14)"/><path class="cls-2" d="M209.46,61.85l.31.17a2.08,2.08,0,0,1,.34.24,1.48,1.48,0,0,1,.28.28.43.43,0,0,1,.12.28.27.27,0,0,1-.06.16,16.46,16.46,0,0,1-2.39,2.68,14.86,14.86,0,0,1-2.64,1.9,12,12,0,0,1-2.8,1.12,11,11,0,0,1-2.81.37,9.71,9.71,0,0,1-4.35-1,10.33,10.33,0,0,1-3.4-2.65,12.54,12.54,0,0,1-2.23-3.94,14.57,14.57,0,0,1-.8-4.86,19.65,19.65,0,0,1,.47-4.23,20.28,20.28,0,0,1,1.34-4A18.4,18.4,0,0,1,193,44.8a15,15,0,0,1,2.87-2.87A13.76,13.76,0,0,1,199.4,40a12.25,12.25,0,0,1,4.15-.69,9.44,9.44,0,0,1,2.78.4,7.43,7.43,0,0,1,2.33,1.13,5.82,5.82,0,0,1,1.59,1.83,5.42,5.42,0,0,1-.72,6,10.31,10.31,0,0,1-3.63,2.55,25.76,25.76,0,0,1-5.45,1.7,61,61,0,0,1-6.77,1v.34a15.7,15.7,0,0,0,.64,4.63,11.69,11.69,0,0,0,1.77,3.59,8.32,8.32,0,0,0,2.65,2.32,6.8,6.8,0,0,0,3.28.83,8.46,8.46,0,0,0,3.65-.88A13.34,13.34,0,0,0,209.46,61.85ZM205.74,46a4.6,4.6,0,0,0-.31-1.71,4.11,4.11,0,0,0-.85-1.37,3.9,3.9,0,0,0-2.91-1.25,5.88,5.88,0,0,0-2.34.45,6.49,6.49,0,0,0-1.87,1.24A8.75,8.75,0,0,0,196,45.15a13.26,13.26,0,0,0-1.07,2.21,17.83,17.83,0,0,0-.73,2.39,21.57,21.57,0,0,0-.39,2.39,34.24,34.24,0,0,0,5-.68,16.56,16.56,0,0,0,3.76-1.24,6.64,6.64,0,0,0,2.34-1.82A3.9,3.9,0,0,0,205.74,46Z" transform="translate(-34.46 -14)"/><path class="cls-2" d="M218.08,45.24a6.53,6.53,0,0,0-.12-1.36,2.31,2.31,0,0,0-.36-.88,1.46,1.46,0,0,0-.63-.47,2.61,2.61,0,0,0-.89-.13,9,9,0,0,0-1.7.19c-.66.14-1.41.31-2.25.54l-.3-1.43c.94-.33,1.84-.62,2.7-.9s1.66-.5,2.38-.7,1.37-.35,1.92-.45a7,7,0,0,1,1.31-.16,2.33,2.33,0,0,1,1.78.68,3.4,3.4,0,0,1,.65,2.35c0,.13,0,.43,0,.91s-.06,1.1-.11,1.83-.1,1.59-.17,2.54-.14,2-.23,3.06-.18,2.2-.28,3.35-.22,2.3-.34,3.45l.12,0a55.82,55.82,0,0,1,3.22-8.61,30.57,30.57,0,0,1,3.5-5.7,12.82,12.82,0,0,1,3.54-3.15,7.09,7.09,0,0,1,3.36-1,5.63,5.63,0,0,1,2.14.42A4.92,4.92,0,0,1,239.11,41a6.65,6.65,0,0,1,1.27,2.35,11,11,0,0,1,.48,3.47c0,.39,0,.92-.07,1.59s-.1,1.4-.17,2.22-.14,1.69-.23,2.6-.16,1.82-.22,2.7-.13,1.72-.17,2.52-.07,1.49-.07,2.09a19,19,0,0,0,.13,2.51,4.4,4.4,0,0,0,.42,1.53,1.59,1.59,0,0,0,.79.77,3.09,3.09,0,0,0,1.21.21,8.08,8.08,0,0,0,2.13-.29,12.82,12.82,0,0,0,2.24-.8l.37,1a12.65,12.65,0,0,1-1.79,1.17c-.73.39-1.49.76-2.29,1.09a20.81,20.81,0,0,1-2.38.8,8.68,8.68,0,0,1-2.1.3,2.37,2.37,0,0,1-1.68-.57,3.52,3.52,0,0,1-.92-1.56,10.46,10.46,0,0,1-.39-2.32c-.06-.88-.09-1.83-.09-2.84,0-1.24,0-2.52.13-3.83s.18-2.56.28-3.75.2-2.26.29-3.23.13-1.74.13-2.32a5.44,5.44,0,0,0-.87-3.41,2.78,2.78,0,0,0-2.31-1.1,4,4,0,0,0-2.42,1,13.27,13.27,0,0,0-2.52,2.66,26.62,26.62,0,0,0-2.41,4,42.08,42.08,0,0,0-2.09,5,46.11,46.11,0,0,0-1.54,5.61,39.07,39.07,0,0,0-.77,5.85l-4.13.52-.32,0c.11-1.26.21-2.62.3-4.1s.18-3,.26-4.49.14-3,.2-4.53.11-2.9.16-4.19.08-2.47.1-3.49S218.08,45.84,218.08,45.24Z" transform="translate(-34.46 -14)"/><path class="cls-2" d="M260.14,55.25a31.48,31.48,0,0,0,4.33-1.8,19.57,19.57,0,0,0,3.37-2.16A9.33,9.33,0,0,0,270,48.88a4.86,4.86,0,0,0,.77-2.59,2.61,2.61,0,0,0-.2-1,2.51,2.51,0,0,0-.56-.79,2.57,2.57,0,0,0-.81-.5,2.73,2.73,0,0,0-1-.18,5.2,5.2,0,0,0-2.58.77A11.24,11.24,0,0,0,263,46.81a22.25,22.25,0,0,0-2.56,3.57,35.36,35.36,0,0,0-2.31,4.81,52.65,52.65,0,0,0-1.92,5.91A58.18,58.18,0,0,0,254.84,68l-4,.52-.31,0c.08-1.56.16-3.28.26-5.15s.21-3.88.32-6,.23-4.3.36-6.59.25-4.62.37-7,.25-4.76.39-7.18.26-4.79.38-7.14.25-4.66.37-6.92.23-4.4.33-6.46a1.49,1.49,0,0,1,.28-.82,1.77,1.77,0,0,1,.66-.55,3.22,3.22,0,0,1,.92-.31,5.39,5.39,0,0,1,1.07-.1,5.73,5.73,0,0,1,2.49.63q-.45,4.05-.81,7.44t-.64,6.27c-.19,1.94-.37,3.74-.53,5.42s-.3,3.29-.42,4.83-.24,3-.36,4.5-.22,3-.32,4.48-.22,3.09-.33,4.71-.23,3.36-.36,5.22l.11,0q.72-2.36,1.68-4.65a43,43,0,0,1,2.14-4.36A32.19,32.19,0,0,1,261.4,45a20.54,20.54,0,0,1,2.81-3,13.23,13.23,0,0,1,3-2,7.54,7.54,0,0,1,3.17-.72,5.12,5.12,0,0,1,1.86.33,4.49,4.49,0,0,1,1.47.93,4.2,4.2,0,0,1,1,1.45,5,5,0,0,1,.34,1.9,7.44,7.44,0,0,1-.71,3.18,11.46,11.46,0,0,1-2,3,18.84,18.84,0,0,1-3.14,2.7,29.66,29.66,0,0,1-4.06,2.36c.88,1.62,1.68,3,2.38,4.16s1.35,2.13,1.92,2.91A16.32,16.32,0,0,0,271,64a7.24,7.24,0,0,0,1.28,1,3.65,3.65,0,0,0,1.09.46,5.23,5.23,0,0,0,1,.11,7.82,7.82,0,0,0,2.14-.32,14.8,14.8,0,0,0,2.23-.83l.38,1a13.42,13.42,0,0,1-1.8,1.17A21.36,21.36,0,0,1,275,67.76a19.51,19.51,0,0,1-2.41.81,8.81,8.81,0,0,1-2.1.3,3.57,3.57,0,0,1-2.13-.78,11.76,11.76,0,0,1-2.27-2.42,45.14,45.14,0,0,1-2.68-4.16q-1.47-2.52-3.36-6Z" transform="translate(-34.46 -14)"/><path class="cls-2" d="M295.07,51.1a4.54,4.54,0,0,1,.32,1.64,1.64,1.64,0,0,1-.22.91,1.44,1.44,0,0,1-.68.53,4,4,0,0,1-1.2.26c-.5,0-1.1.06-1.79.06s-1.29,0-1.93,0l-2-.1-2-.11c-.65,0-1.31,0-2,0a24.17,24.17,0,0,0-2.57.13,16.22,16.22,0,0,0-2.54.48A3.73,3.73,0,0,1,279,52.9a2.7,2.7,0,0,1,1.2-1.09,5.61,5.61,0,0,1,1.86-.5,23,23,0,0,1,2.45-.11c.91,0,1.9,0,3,.07s2.23.08,3.47.08c.75,0,1.49,0,2.21-.05A15.8,15.8,0,0,0,295.07,51.1Z" transform="translate(-34.46 -14)"/><path class="cls-2" d="M302.31,60.84a5.85,5.85,0,0,0,2.43,4.37,6.68,6.68,0,0,0,2.15,1,8.23,8.23,0,0,0,2.34.34,7.3,7.3,0,0,0,2.1-.3,6,6,0,0,0,1.78-.85,4.32,4.32,0,0,0,1.23-1.36,3.6,3.6,0,0,0,.47-1.82,3.4,3.4,0,0,0-.5-1.84A5.58,5.58,0,0,0,313,59a11.58,11.58,0,0,0-1.93-1.21l-2.28-1.13-2.11-1c-.7-.33-1.39-.7-2.05-1.09a17.72,17.72,0,0,1-1.84-1.29,8.73,8.73,0,0,1-1.51-1.53,6.64,6.64,0,0,1-1.37-4.18,6.6,6.6,0,0,1,.47-2.51,7.17,7.17,0,0,1,1.3-2.07,9.26,9.26,0,0,1,1.9-1.61,12.09,12.09,0,0,1,2.3-1.16,13.83,13.83,0,0,1,2.52-.69,14.67,14.67,0,0,1,2.52-.23,12.59,12.59,0,0,1,3,.35,8.48,8.48,0,0,1,2.47,1,5.4,5.4,0,0,1,1.68,1.61,3.75,3.75,0,0,1,.62,2.13,3.61,3.61,0,0,1-.15,1,3,3,0,0,1-.54,1,3,3,0,0,1-1,.78,3.53,3.53,0,0,1-1.5.34,6.5,6.5,0,0,1-1.74-.26l-.06-.2a6.17,6.17,0,0,0,.4-1.16,4.54,4.54,0,0,0,.11-1,2.59,2.59,0,0,0-.46-1.53,3.53,3.53,0,0,0-1.12-1,4.87,4.87,0,0,0-1.49-.58,8.16,8.16,0,0,0-1.61-.17,7.79,7.79,0,0,0-2.51.37,6,6,0,0,0-1.87,1A4.54,4.54,0,0,0,304,44.35a3.59,3.59,0,0,0-.4,1.65,3.43,3.43,0,0,0,.57,1.94,6.46,6.46,0,0,0,1.52,1.58,13.88,13.88,0,0,0,2.19,1.36q1.23.63,2.58,1.26c1,.48,2,1,3,1.48a14.09,14.09,0,0,1,2.65,1.73A8.12,8.12,0,0,1,318,57.57a5.85,5.85,0,0,1,.72,3,7.2,7.2,0,0,1-.9,3.62,8.5,8.5,0,0,1-2.4,2.67,11.25,11.25,0,0,1-3.45,1.65,14.71,14.71,0,0,1-4,.56,14.9,14.9,0,0,1-2.17-.16,14.06,14.06,0,0,1-2.16-.47,12.86,12.86,0,0,1-2-.78,7.87,7.87,0,0,1-1.64-1.07,4.71,4.71,0,0,1-1.11-1.35,3.31,3.31,0,0,1-.4-1.63,2.41,2.41,0,0,1,.32-1.3,2.65,2.65,0,0,1,.86-.87,4.3,4.3,0,0,1,1.2-.51,6.09,6.09,0,0,1,1.35-.18Z" transform="translate(-34.46 -14)"/><path class="cls-2" d="M330.65,40.16c-.23,1.5-.42,3-.58,4.52s-.28,3-.38,4.38-.18,2.75-.22,4-.07,2.4-.07,3.41c0,1.38,0,2.55.06,3.53a24.39,24.39,0,0,0,.2,2.49A8.52,8.52,0,0,0,330,64.1a2.55,2.55,0,0,0,.52.93,1.41,1.41,0,0,0,.71.42,3.71,3.71,0,0,0,.92.1,7.84,7.84,0,0,0,2.05-.29,12.93,12.93,0,0,0,2.22-.8l.38,1A13.92,13.92,0,0,1,335,66.66a25.06,25.06,0,0,1-2.27,1.09,21.32,21.32,0,0,1-2.32.8,7.94,7.94,0,0,1-2,.3,5.27,5.27,0,0,1-1-.09,1.58,1.58,0,0,1-.82-.44,3.21,3.21,0,0,1-.65-1,8.37,8.37,0,0,1-.47-1.88,27.15,27.15,0,0,1-.29-3c-.07-1.19-.1-2.63-.1-4.31q0-1.48,0-3.36c0-1.24.05-2.58.09-4s.09-2.94.16-4.53.15-3.22.25-4.91a1.72,1.72,0,0,1,.3-.9,1.69,1.69,0,0,1,.63-.53,2.5,2.5,0,0,1,.8-.26,4.59,4.59,0,0,1,.78-.07A5.28,5.28,0,0,1,330.65,40.16Zm-1.72-8.94a2.57,2.57,0,0,1-1.23-.28,2.88,2.88,0,0,1-.91-.75,3.33,3.33,0,0,1-.57-1.07,3.7,3.7,0,0,1-.2-1.24,3.89,3.89,0,0,1,.3-1.57,3.47,3.47,0,0,1,.77-1.15,3.2,3.2,0,0,1,1-.69,3.1,3.1,0,0,1,1.13-.22,2.72,2.72,0,0,1,2.13.92,3.34,3.34,0,0,1,.59,1,3.47,3.47,0,0,1,.21,1.22,4.08,4.08,0,0,1-.24,1.37,4.46,4.46,0,0,1-.66,1.24,3.51,3.51,0,0,1-1,.89A2.73,2.73,0,0,1,328.93,31.22Z" transform="translate(-34.46 -14)"/><path class="cls-2" d="M358.47,61.85l.3.17a2.16,2.16,0,0,1,.35.24,1.43,1.43,0,0,1,.27.28.43.43,0,0,1,.12.28.27.27,0,0,1-.06.16,16,16,0,0,1-2.38,2.68,14.57,14.57,0,0,1-2.65,1.9,11.88,11.88,0,0,1-2.8,1.12,10.89,10.89,0,0,1-2.8.37,9.71,9.71,0,0,1-4.35-1,10.33,10.33,0,0,1-3.4-2.65,12.35,12.35,0,0,1-2.23-3.94,14.57,14.57,0,0,1-.8-4.86,20.29,20.29,0,0,1,.46-4.23,19.68,19.68,0,0,1,1.35-4A18.87,18.87,0,0,1,342,44.8a15.34,15.34,0,0,1,2.88-2.87A13.76,13.76,0,0,1,348.41,40a12.24,12.24,0,0,1,4.14-.69,9.46,9.46,0,0,1,2.79.4,7.27,7.27,0,0,1,2.32,1.13,5.72,5.72,0,0,1,1.6,1.83,5.4,5.4,0,0,1-.73,6,10.18,10.18,0,0,1-3.62,2.55,26,26,0,0,1-5.45,1.7,61.36,61.36,0,0,1-6.77,1v.34a15.7,15.7,0,0,0,.64,4.63,11.69,11.69,0,0,0,1.77,3.59,8.22,8.22,0,0,0,2.65,2.32,6.77,6.77,0,0,0,3.28.83,8.49,8.49,0,0,0,3.65-.88A13.48,13.48,0,0,0,358.47,61.85ZM354.75,46a4.6,4.6,0,0,0-.31-1.71,4.27,4.27,0,0,0-.85-1.37,3.9,3.9,0,0,0-2.91-1.25,5.88,5.88,0,0,0-2.34.45,6.53,6.53,0,0,0-1.88,1.24A8.71,8.71,0,0,0,345,45.15a14.14,14.14,0,0,0-1.08,2.21,19.38,19.38,0,0,0-.72,2.39,21.57,21.57,0,0,0-.39,2.39,34.43,34.43,0,0,0,5-.68,16.47,16.47,0,0,0,3.75-1.24,6.6,6.6,0,0,0,2.35-1.82A3.9,3.9,0,0,0,354.75,46Z" transform="translate(-34.46 -14)"/><path class="cls-2" d="M366.35,68.5l-.31,0c.1-1.26.2-2.62.3-4.1s.17-3,.25-4.49.15-3,.21-4.53.11-2.9.16-4.19.08-2.47.1-3.49,0-1.84,0-2.44A11.44,11.44,0,0,0,367,44a2.22,2.22,0,0,0-.27-.89,1.29,1.29,0,0,0-.6-.53,2.87,2.87,0,0,0-1.07-.16,5.53,5.53,0,0,0-.69,0c-.24,0-.5.06-.79.11l-1,.21-1.26.31-.29-1.42A51.5,51.5,0,0,1,366.39,40a15,15,0,0,1,2.75-.48,2.16,2.16,0,0,1,1.87.76,3.76,3.76,0,0,1,.56,2.27q0,.13,0,.81c0,.44-.07,1-.11,1.75s-.11,1.55-.17,2.5-.14,2-.23,3.05-.18,2.22-.29,3.4-.21,2.36-.33,3.53l.2,0a72,72,0,0,1,2.14-7.22,32.73,32.73,0,0,1,2.69-5.83,14.32,14.32,0,0,1,3.28-3.88,6.17,6.17,0,0,1,3.93-1.42,4,4,0,0,1,1.4.24,3.51,3.51,0,0,1,1.13.66,3.25,3.25,0,0,1,.75,1,3,3,0,0,1,.28,1.28,4,4,0,0,1-.39,1.71,4,4,0,0,1-1.21,1.45h-.16a6.5,6.5,0,0,0-1.58-1,4.11,4.11,0,0,0-1.57-.31,4.66,4.66,0,0,0-1.72.34,5.23,5.23,0,0,0-1.52,1A11.33,11.33,0,0,0,376,48.3a29.08,29.08,0,0,0-1.77,3.75q-.79,2.06-1.44,4.32c-.43,1.51-.8,3-1.11,4.4s-.56,2.78-.75,4-.32,2.32-.4,3.17Z" transform="translate(-34.46 -14)"/><path class="cls-2" d="M402.8,47.66a6.42,6.42,0,0,0-.52-2.71,5.38,5.38,0,0,0-1.34-1.88A5.55,5.55,0,0,0,399.06,42a6.43,6.43,0,0,0-2.1-.35,8.16,8.16,0,0,0-2.37.29,4.38,4.38,0,0,0-1.57.81,3.05,3.05,0,0,0-.87,1.22,4.17,4.17,0,0,0-.27,1.51,5.64,5.64,0,0,0,.35,1.91,7.32,7.32,0,0,0,1,1.87l-.08.22a5.23,5.23,0,0,1-2.28.55,3.69,3.69,0,0,1-1.25-.21,2.92,2.92,0,0,1-1-.6,2.76,2.76,0,0,1-.67-1,3.13,3.13,0,0,1-.25-1.29,4.54,4.54,0,0,1,.56-2.19,7.39,7.39,0,0,1,1.5-1.88,10.86,10.86,0,0,1,2.15-1.52,17.35,17.35,0,0,1,2.53-1.14,17,17,0,0,1,2.62-.71,13.74,13.74,0,0,1,2.44-.25,10.06,10.06,0,0,1,3.55.56,5.75,5.75,0,0,1,2.39,1.61A6.41,6.41,0,0,1,406.8,44a12.59,12.59,0,0,1,.43,3.4c0,.87,0,1.82-.11,2.87s-.16,2.13-.25,3.27-.18,2.32-.25,3.53-.11,2.42-.11,3.62A7.24,7.24,0,0,0,407.57,65a3.31,3.31,0,0,0,2.78,1.43,6.69,6.69,0,0,0,3.4-1.13l.57.85a9.37,9.37,0,0,1-2.88,2,8.09,8.09,0,0,1-3.29.69,6.36,6.36,0,0,1-2.37-.43,5.09,5.09,0,0,1-1.88-1.3,6,6,0,0,1-1.22-2.16,9.58,9.58,0,0,1-.44-3c0-.34,0-.68,0-1s.07-.7.13-1.08h-.12a28.16,28.16,0,0,1-2,3.35,18.2,18.2,0,0,1-2.45,2.94,12.17,12.17,0,0,1-2.85,2.1,6.69,6.69,0,0,1-3.17.8,6.46,6.46,0,0,1-2.49-.47,5.69,5.69,0,0,1-3.17-3.28,6.63,6.63,0,0,1-.45-2.48,7.72,7.72,0,0,1,.64-3.16A8.62,8.62,0,0,1,388.15,57a11.32,11.32,0,0,1,2.72-2,18.82,18.82,0,0,1,3.44-1.36,23.89,23.89,0,0,1,3.94-.81,32.68,32.68,0,0,1,4.23-.27c.09-.83.17-1.64.23-2.41S402.8,48.59,402.8,47.66ZM390.66,61.24a6.37,6.37,0,0,0,.16,1.47,3.77,3.77,0,0,0,.54,1.24,2.59,2.59,0,0,0,.93.84,2.81,2.81,0,0,0,1.35.31,4.54,4.54,0,0,0,1.84-.42,8.51,8.51,0,0,0,1.87-1.15,11.62,11.62,0,0,0,1.76-1.75,14.67,14.67,0,0,0,1.51-2.22A14.83,14.83,0,0,0,401.74,57a12.73,12.73,0,0,0,.58-2.74c-1,0-1.94.09-2.91.19a20.44,20.44,0,0,0-2.73.46,13.13,13.13,0,0,0-2.41.83,7.2,7.2,0,0,0-1.9,1.28,5.42,5.42,0,0,0-1.26,1.8A6,6,0,0,0,390.66,61.24Z" transform="translate(-34.46 -14)"/><path class="cls-2" d="M431.76,47.66a6.59,6.59,0,0,0-.51-2.71,5.28,5.28,0,0,0-1.35-1.88A5.5,5.5,0,0,0,428,42a6.43,6.43,0,0,0-2.1-.35,8.07,8.07,0,0,0-2.37.29,4.38,4.38,0,0,0-1.57.81,2.87,2.87,0,0,0-.87,1.22,4.17,4.17,0,0,0-.27,1.51,5.41,5.41,0,0,0,.35,1.91,7.6,7.6,0,0,0,1,1.87l-.08.22a5.23,5.23,0,0,1-2.27.55,3.7,3.7,0,0,1-1.26-.21,2.87,2.87,0,0,1-1-.6,2.93,2.93,0,0,1-.68-1,3.3,3.3,0,0,1-.24-1.29,4.44,4.44,0,0,1,.56-2.19,7.35,7.35,0,0,1,1.49-1.88,10.94,10.94,0,0,1,2.16-1.52,16.88,16.88,0,0,1,2.53-1.14A16.69,16.69,0,0,1,426,39.5a13.65,13.65,0,0,1,2.44-.25,10.09,10.09,0,0,1,3.55.56,5.75,5.75,0,0,1,2.39,1.61A6.54,6.54,0,0,1,435.77,44a12.61,12.61,0,0,1,.42,3.4c0,.87,0,1.82-.11,2.87s-.15,2.13-.24,3.27-.18,2.32-.25,3.53-.11,2.42-.11,3.62A7.17,7.17,0,0,0,436.54,65a3.3,3.3,0,0,0,2.78,1.43,6.72,6.72,0,0,0,3.4-1.13l.57.85a9.29,9.29,0,0,1-2.89,2,8,8,0,0,1-3.28.69,6.29,6.29,0,0,1-2.37-.43,5,5,0,0,1-1.88-1.3,5.83,5.83,0,0,1-1.23-2.16,9.59,9.59,0,0,1-.43-3c0-.34,0-.68,0-1a8.79,8.79,0,0,1,.13-1.08h-.12a29.58,29.58,0,0,1-2,3.35,18.2,18.2,0,0,1-2.45,2.94,12.17,12.17,0,0,1-2.85,2.1,6.72,6.72,0,0,1-3.17.8,6.46,6.46,0,0,1-2.49-.47,5.69,5.69,0,0,1-1.93-1.31,6,6,0,0,1-1.25-2,6.84,6.84,0,0,1-.44-2.48,7.56,7.56,0,0,1,.64-3.16A8.44,8.44,0,0,1,417.12,57a11.32,11.32,0,0,1,2.72-2,18.82,18.82,0,0,1,3.44-1.36,24,24,0,0,1,3.93-.81,33,33,0,0,1,4.24-.27c.09-.83.16-1.64.22-2.41S431.76,48.59,431.76,47.66ZM419.62,61.24a6.37,6.37,0,0,0,.17,1.47,3.57,3.57,0,0,0,.54,1.24,2.64,2.64,0,0,0,.92.84,2.87,2.87,0,0,0,1.36.31,4.57,4.57,0,0,0,1.84-.42,8.75,8.75,0,0,0,1.87-1.15,11.62,11.62,0,0,0,1.76-1.75,14.67,14.67,0,0,0,1.51-2.22A14.83,14.83,0,0,0,430.71,57a12.73,12.73,0,0,0,.58-2.74c-1,0-2,.09-2.91.19a20.87,20.87,0,0,0-2.74.46,13.29,13.29,0,0,0-2.4.83A7.26,7.26,0,0,0,421.33,57a5.54,5.54,0,0,0-1.25,1.8A5.81,5.81,0,0,0,419.62,61.24Z" transform="translate(-34.46 -14)"/><path class="cls-2" d="M472.89,14.91c-.47,3.35-.93,6.78-1.36,10.28s-.82,7-1.15,10.48-.59,6.91-.79,10.29-.3,6.61-.3,9.7c0,1.49,0,2.77,0,3.84s.09,2,.16,2.71a9.58,9.58,0,0,0,.3,1.76,2.88,2.88,0,0,0,.47,1,1.33,1.33,0,0,0,.66.46,3.33,3.33,0,0,0,.89.11,7.78,7.78,0,0,0,2.05-.29,12.93,12.93,0,0,0,2.22-.8l.38,1a13.25,13.25,0,0,1-1.79,1.17,24.86,24.86,0,0,1-2.26,1.09,22.22,22.22,0,0,1-2.33.8,7.87,7.87,0,0,1-2,.3,3.43,3.43,0,0,1-1.07-.14,1.66,1.66,0,0,1-.78-.48,2.82,2.82,0,0,1-.56-.92,6.9,6.9,0,0,1-.36-1.46c-.12-.79-.22-1.72-.29-2.77s-.11-2.2-.11-3.44.05-2.66.15-4,.26-2.72.48-4.08l-.17,0a55.9,55.9,0,0,1-3.32,7.26,35.59,35.59,0,0,1-3.68,5.53,17.09,17.09,0,0,1-3.82,3.53,6.77,6.77,0,0,1-3.68,1.24,5.19,5.19,0,0,1-3.06-.9,7,7,0,0,1-2.11-2.37,11.94,11.94,0,0,1-1.21-3.38,18.92,18.92,0,0,1-.4-3.93,22,22,0,0,1,.53-4.79,21.53,21.53,0,0,1,1.54-4.48,20.66,20.66,0,0,1,2.4-3.93,16.5,16.5,0,0,1,3.14-3.11,14.84,14.84,0,0,1,3.77-2,12.52,12.52,0,0,1,7.38-.34,12,12,0,0,1,3.09,1.3q.11-3.36.25-6.83t.34-6.75q.19-3.28.44-6.21t.51-5.22a1.71,1.71,0,0,1,.32-.82,1.82,1.82,0,0,1,.65-.55,3,3,0,0,1,.89-.31,4.87,4.87,0,0,1,1-.1A5.73,5.73,0,0,1,472.89,14.91Zm-7.1,27.86a12.32,12.32,0,0,0-5.3-1.26,9.73,9.73,0,0,0-6.42,2.3,11.93,11.93,0,0,0-2.26,2.53,15.83,15.83,0,0,0-1.6,3.12,20.33,20.33,0,0,0-1,3.48,19.66,19.66,0,0,0-.32,3.57c0,.43,0,.91.06,1.46a13.44,13.44,0,0,0,.22,1.7,12.79,12.79,0,0,0,.45,1.72,6.74,6.74,0,0,0,.69,1.51,3.59,3.59,0,0,0,1,1.08,2.33,2.33,0,0,0,1.37.4,5,5,0,0,0,2.91-1.06,15.32,15.32,0,0,0,2.89-2.83,26.69,26.69,0,0,0,2.67-4,42.57,42.57,0,0,0,2.24-4.67A40.84,40.84,0,0,0,465,47,22.62,22.62,0,0,0,465.79,42.77Z" transform="translate(-34.46 -14)"/><path class="cls-2" d="M483,68.79a2.7,2.7,0,0,1-1.25-.28,3.1,3.1,0,0,1-1-.76,3.29,3.29,0,0,1-.59-1.09,3.86,3.86,0,0,1-.21-1.25,4,4,0,0,1,.3-1.6,3.63,3.63,0,0,1,.8-1.16,3.36,3.36,0,0,1,1.07-.7,3.14,3.14,0,0,1,1.17-.24,3,3,0,0,1,2.19.94,3.06,3.06,0,0,1,.62,1,3.63,3.63,0,0,1,.22,1.24,4.25,4.25,0,0,1-.24,1.4,4.32,4.32,0,0,1-.68,1.25,3.7,3.7,0,0,1-1.07.9A2.82,2.82,0,0,1,483,68.79Z" transform="translate(-34.46 -14)"/><path class="cls-2" d="M495.45,45.24a6.53,6.53,0,0,0-.12-1.36A2.31,2.31,0,0,0,495,43a1.46,1.46,0,0,0-.63-.47,2.61,2.61,0,0,0-.89-.13,9,9,0,0,0-1.7.19c-.66.14-1.41.31-2.25.54l-.3-1.43c.94-.33,1.84-.62,2.7-.9s1.66-.5,2.38-.7,1.37-.35,1.92-.45a7.12,7.12,0,0,1,1.31-.16,2.37,2.37,0,0,1,1.79.68,3.46,3.46,0,0,1,.64,2.35c0,.13,0,.43,0,.91s-.06,1.1-.11,1.83-.1,1.59-.17,2.54-.14,2-.22,3.06-.19,2.2-.29,3.35-.22,2.3-.34,3.45l.12,0a55.82,55.82,0,0,1,3.22-8.61,30.57,30.57,0,0,1,3.5-5.7,12.82,12.82,0,0,1,3.54-3.15,7.09,7.09,0,0,1,3.36-1,5.63,5.63,0,0,1,2.14.42A4.84,4.84,0,0,1,516.48,41a6.65,6.65,0,0,1,1.27,2.35,11,11,0,0,1,.48,3.47c0,.39,0,.92-.07,1.59s-.1,1.4-.17,2.22-.14,1.69-.23,2.6-.16,1.82-.22,2.7-.13,1.72-.17,2.52-.07,1.49-.07,2.09a19,19,0,0,0,.13,2.51,4.63,4.63,0,0,0,.42,1.53,1.59,1.59,0,0,0,.79.77,3.12,3.12,0,0,0,1.21.21,8.15,8.15,0,0,0,2.14-.29,13,13,0,0,0,2.23-.8l.38,1a13.42,13.42,0,0,1-1.8,1.17c-.73.39-1.49.76-2.29,1.09a20.81,20.81,0,0,1-2.38.8,8.68,8.68,0,0,1-2.1.3,2.37,2.37,0,0,1-1.68-.57,3.62,3.62,0,0,1-.92-1.56A10.46,10.46,0,0,1,513,64.4c-.06-.88-.09-1.83-.09-2.84,0-1.24,0-2.52.13-3.83s.18-2.56.29-3.75.2-2.26.28-3.23.13-1.74.13-2.32a5.44,5.44,0,0,0-.87-3.41,2.78,2.78,0,0,0-2.31-1.1,4,4,0,0,0-2.42,1,13.27,13.27,0,0,0-2.52,2.66,27.48,27.48,0,0,0-2.41,4,42.08,42.08,0,0,0-2.09,5,48,48,0,0,0-1.54,5.61,39.07,39.07,0,0,0-.77,5.85l-4.13.52-.32,0c.11-1.26.21-2.62.3-4.1s.18-3,.26-4.49.14-3,.2-4.53.12-2.9.16-4.19.08-2.47.1-3.49S495.45,45.84,495.45,45.24Z" transform="translate(-34.46 -14)"/><path class="cls-2" d="M536.14,14.91q-.39,3.36-.78,6.89t-.73,7.14c-.23,2.41-.44,4.82-.64,7.25s-.37,4.81-.52,7.17-.25,4.66-.33,6.93-.12,4.44-.12,6.52c0,1.31,0,2.43.05,3.36s.08,1.73.16,2.37a8.89,8.89,0,0,0,.29,1.57A2.57,2.57,0,0,0,534,65a1.31,1.31,0,0,0,.65.42,3.33,3.33,0,0,0,.89.11,7.84,7.84,0,0,0,2.05-.29,12.93,12.93,0,0,0,2.22-.8l.38,1a13.92,13.92,0,0,1-1.79,1.17,25.06,25.06,0,0,1-2.27,1.09,21.32,21.32,0,0,1-2.32.8,7.87,7.87,0,0,1-2,.3,2.5,2.5,0,0,1-1.69-.54,3.52,3.52,0,0,1-.95-1.77,16.17,16.17,0,0,1-.41-3.19c-.06-1.32-.09-2.91-.09-4.8q0-1,.06-2.94c0-1.27.09-2.75.17-4.43s.15-3.54.24-5.54.19-4.08.3-6.22.22-4.3.34-6.49.23-4.29.35-6.32.23-4,.34-5.77.2-3.4.29-4.78a1.49,1.49,0,0,1,.28-.82,1.77,1.77,0,0,1,.66-.55,3.26,3.26,0,0,1,.91-.31,5,5,0,0,1,1-.1A5.73,5.73,0,0,1,536.14,14.91Z" transform="translate(-34.46 -14)"/></svg>